<svg version="1" xmlns="http://www.w3.org/2000/svg" width="346.667" height="346.667" viewBox="0 0 260.000000 260.000000"><path d="M107 4.6c-5.8 1.3-11.8 2.6-13.5 2.9-13.1 2.4-35 14.9-49.4 28.1C21.9 56 6.6 85.2 3.1 113.8c-.9 6.9-.7 25.7.3 32.2 4.2 27.5 19.6 57.3 39.7 76.7 8.7 8.4 11 10.2 19.4 15.8 13 8.6 22.6 12.9 36.5 16.5 17.5 4.5 32 4.4 54.9-.4 15.7-3.3 37.6-12.4 50.8-21.1 7.9-5.3 21-17.3 27.1-24.8 11.8-14.6 23-42 25.9-63.2 1.5-11 .8-32.2-1.4-42.6-10.1-47.4-49-85.4-99.3-96.8-13-3-14.6-3.2-27.5-3.5-9.8-.3-14 .1-22.5 2zm49.6 9.2c24.4 5.3 50.1 20.9 65.4 39.6 8.1 9.9 8.4 9.2-4.3 9.3-13.4 0-29 .9-33.2 2-7.8 1.9-28.9-.4-47.2-5.2-7.1-1.8-7-1.8-17.3-4-4.1-.9-11.1-2.6-15.5-3.8-7.1-1.9-10.4-2.2-28.5-2.1-11.3 0-22.1.3-24 .7-1.9.4-4.8.9-6.4 1.2-1.6.4-3.4.9-3.9 1.2-3.1 1.9 3.9-5.9 10.2-11.4 17.7-15.5 40.4-26.1 61.6-28.9 2.8-.3 5.2-.8 5.4-.9 1.2-1.2 29.8.6 37.7 2.3zM22 94c.4.3 2.5 2 4.6 3.8 2.2 1.8 7 5.5 10.8 8.2l6.9 5 7.3-.2c7.3-.3 7.3-.3 11.4 3.7 2.2 2.1 4 4.3 4 4.7 0 .5.4 1.4 1 2.1 8 9.8 10.8 15.1 10.9 20.7.2 7.7.8 10.3 3.4 15 1.4 2.5 2.8 6.9 3.1 9.8.3 3 .9 5.8 1.2 6.3.3.5.7 4.3.9 8.4.2 4.2.7 8 1.1 8.6.4.6.8 8.6 1 17.8.2 9.1.5 20.3.7 24.9.2 4.5.1 8.5-.3 8.7-1.3.8-22.4-10.4-29.5-15.7-19.1-14.2-34.6-35.4-41.9-57.2-4.4-13-5.8-21.3-6.1-35.6-.4-16.2 1.6-30.3 5.7-40.3 1-2.6 1.2-2.7 2.1-1 .6 1 1.4 2 1.7 2.3zm223.8 4.7c3.4 13.2 4.1 20 3.7 34.8-.3 13.7-1.9 22.9-6 35.1-11 32.8-38.1 60.6-71.2 73-3.5 1.3-7 2.4-7.7 2.4-1.9 0-3.5-8.1-4.1-21-.2-3-.6-7.8-.9-10.5-.4-2.8-.9-7.3-1.1-10-.2-2.8-.7-8.4-1.1-12.5-.4-4.1-.7-8.5-.8-9.8 0-1.2-.3-2.2-.8-2.2-.4 0-.5-.6-.2-1.3.3-.8.1-3.2-.4-5.5-.6-2.3-.6-4.2-.2-4.4.5-.2 1-2.8 1.3-5.8.3-3 .8-6.4 1.3-7.5 2.1-5.5 31.1-30.4 48.4-41.6 4.7-3.1 11.2-7.3 14.5-9.5 7.7-5 10.1-6 15.9-6.7 2.7-.4 5.1-.9 5.4-1.2 1.5-1.5 2.9 0 4 4.2z"/></svg>